<?xml version="1.0" encoding="utf-8"?>
<svg xmlns="http://www.w3.org/2000/svg" xmlns:xlink="http://www.w3.org/1999/xlink" version= "1.1" width="720px" height="1358px" viewBox="0 0 720 1358">
<g id="layer1">
<g style="fill:rgb(0,0,0); fill-opacity:1.0; stroke-linejoin: miter">
<path d="M-212.83224,654.44775L-168.26445,517.5801L-123.69667,654.452L19.54145,654.463L-96.41247,739.0265L-52.30415,875.8815L-168.26482,791.31213L-284.23492,875.88916L-240.11945,739.0226L-356.0997,654.4407 Z"/>
</g>
<g style="fill:rgb(0,0,0); fill-opacity:1.0; stroke-linejoin: miter">
<path d="M-212.83224,654.44775L-168.26445,517.5801L-123.69667,654.452L19.54145,654.463L-96.41247,739.0265L-52.30415,875.8815L-168.26482,791.31213L-284.23492,875.88916L-240.11945,739.0226L-356.0997,654.4407 Z"/>
</g>
<g style="fill:rgb(0,0,0); fill-opacity:1.0; stroke-linejoin: miter">
<path d="M-212.83224,654.44775L-168.26445,517.5801L-123.69667,654.452L19.54145,654.463L-96.41247,739.0265L-52.30415,875.8815L-168.26482,791.31213L-284.23492,875.88916L-240.11945,739.0226L-356.0997,654.4407 Z"/>
</g>
<g>
<g style="fill:rgb(0,0,0); fill-opacity:1.0; stroke-linejoin: miter">
</g>
</g>
<g style="fill:rgb(0,0,0); fill-opacity:1.0; stroke-linejoin: miter">
<path d="M-405.25134,822.9873C-405.5652,823.40564,-405.87897,848.9281,-405.87897,879.7853L-405.87897,935.9557L-391.4441,944.6376C-360.06396,963.5702,-314.35358,993.0675,-290.81854,1009.5941C-286.52985,1012.5231,-278.4757,1018.0668,-273.0365,1021.83264C-263.3086,1028.527,-258.28778,1032.0834,-242.70241,1043.5895C-238.41371,1046.8322,-233.49751,1050.3885,-231.82393,1051.6437C-224.92024,1056.7692,-205.04622,1071.8317,-186.2181,1086.2665C-182.45247,1089.0907,-177.22243,1093.2745,-174.60744,1095.4713C-171.8879,1097.6678,-169.2729,1099.4462,-168.7499,1099.4462C-168.12227,1099.4462,-164.67049,1097.1449,-161.00941,1094.3207C-121.36586,1063.568,-103.58382,1050.2838,-73.56349,1028.8407C-61.5345,1020.26355,-37.58101,1003.52747,-34.54756,1001.64465C-33.606155,1001.0172,-22.518509,993.7997,-9.861832,985.327C2.6902313,976.9591,13.777878,969.84607,14.614731,969.4276C15.451462,969.0094,19.740036,966.3944,24.028732,963.5702C28.317368,960.746,39.927963,953.5287,49.655746,947.6708C59.488144,941.81335,67.75163,936.47864,68.16997,935.8512C69.111496,934.4911,69.320724,823.9287,68.379196,823.0918C68.065475,822.67346,66.81023,822.9873,65.450485,823.61487C61.475693,825.7068,38.04515,840.2462,24.970078,848.6144C18.066391,853.1122,12.208908,856.7731,11.895004,856.7731C10.953659,856.7731,-33.1877,886.2704,-52.120438,899.5548C-63.3127,907.3998,-73.45882,914.5126,-74.60945,915.3495C-80.7809,919.63806,-103.792984,936.2694,-108.8138,940.1395C-111.95186,942.54553,-119.27388,948.08923,-125.02693,952.2733C-130.77986,956.5619,-142.80898,965.7667,-151.69997,972.775C-160.59102,979.6786,-168.12227,985.327,-168.43605,985.327C-168.7499,985.327,-176.28108,979.6786,-185.17213,972.775C-250.44276,921.8346,-315.818,876.5426,-383.9129,834.8071C-402.84558,823.301,-404.51917,822.255,-405.25134,822.9873 Z"/>
</g>
<g style="fill:rgb(0,0,0); fill-opacity:1.0; stroke-linejoin: miter">
<path d="M-405.72205,1056.5599L-405.72205,1113.0441L-401.74725,1115.4498C-399.6552,1116.8099,-395.78497,1119.111,-393.16998,1120.5753C-390.555,1122.0399,-380.51337,1128.2113,-370.78552,1134.3827C-361.1623,1140.4493,-352.79425,1145.4703,-352.37585,1145.4703C-351.85284,1145.4703,-351.32983,1145.784,-351.1206,1146.307C-350.91144,1146.7255,-346.83203,1149.6542,-341.91577,1152.7921C-330.40973,1160.1144,-301.64465,1179.1517,-292.2306,1185.7413C-240.03499,1222.247,-195.99825,1254.464,-192.23262,1259.0663C-191.60506,1259.9032,-190.66365,1260.5306,-190.14058,1260.5306C-189.61763,1260.5306,-184.91054,1264.087,-179.576,1268.3759C-174.24129,1272.6642,-169.22047,1276.2206,-168.27913,1276.2206C-167.02388,1276.2206,-157.8191,1269.5262,-146.313,1260.2169C-136.06221,1251.849,-85.226395,1214.0883,-73.40657,1206.1385C-72.255936,1205.3019,-65.87532,1200.8038,-59.285477,1196.2013C-37.52858,1180.9298,-14.621109,1165.3444,-14.09816,1165.3444C-13.784317,1165.3444,-8.763504,1162.1017,-2.8012848,1158.1268C13.411789,1147.3531,20.629257,1142.7506,43.536728,1128.7343C55.04271,1121.726,65.50267,1115.2408,66.75792,1114.5087L69.1638,1113.0441L69.1638,1056.5599C69.1638,1017.43933,68.85008,1000.0758,68.01317,1000.0758C67.4901,1000.0758,60.27269,1004.15515,52.113937,1009.0714C43.955124,1014.09216,36.31932,1018.6947,35.168625,1019.32214C19.478561,1027.8995,-66.29372,1085.6388,-91.50246,1104.5714C-94.9543,1107.1866,-103.63606,1113.6718,-110.85353,1118.9017C-123.61476,1128.3158,-130.41377,1133.5458,-155.0995,1152.5831C-161.89857,1157.9176,-167.86073,1162.2064,-168.38374,1162.2064C-168.80214,1162.2064,-173.09077,1159.173,-177.90236,1155.4073C-191.70961,1144.6334,-246.41566,1103.5255,-255.93428,1096.7264C-302.79523,1063.4635,-343.0664,1036.7904,-379.5719,1014.7196C-385.6388,1011.0587,-391.70563,1007.2931,-393.16998,1006.3517C-397.2494,1003.52747,-403.63,1000.0758,-404.67603,1000.0758C-405.30365,1000.0758,-405.72205,1020.7865,-405.72205,1056.5599 Z"/>
</g>
<g style="fill:rgb(0,0,0); fill-opacity:1.0; stroke-linejoin: miter">
<path d="M-405.72205,1236.7211L-405.72205,1293.2052L-401.74725,1295.611C-399.6552,1296.9711,-395.78497,1299.2721,-393.16998,1300.7365C-390.555,1302.201,-380.51337,1308.3724,-370.78552,1314.5438C-361.1623,1320.6105,-352.79425,1325.6315,-352.37585,1325.6315C-351.85284,1325.6315,-351.32983,1325.9452,-351.1206,1326.4681C-350.91144,1326.8866,-346.83203,1329.8153,-341.91577,1332.9532C-330.40973,1340.2755,-301.64465,1359.3129,-292.2306,1365.9025C-240.03499,1402.4081,-195.99825,1434.6251,-192.23262,1439.2274C-191.60506,1440.0643,-190.66365,1440.6918,-190.14058,1440.6918C-189.61763,1440.6918,-184.91054,1444.2482,-179.576,1448.537C-174.24129,1452.8253,-169.22047,1456.3817,-168.27913,1456.3817C-167.02388,1456.3817,-157.8191,1449.6874,-146.313,1440.378C-136.06221,1432.0101,-85.226395,1394.2494,-73.40657,1386.2997C-72.255936,1385.463,-65.87532,1380.965,-59.285477,1376.3624C-37.52858,1361.091,-14.621109,1345.5055,-14.09816,1345.5055C-13.784317,1345.5055,-8.763504,1342.2628,-2.8012848,1338.288C13.411789,1327.5143,20.629257,1322.9117,43.536728,1308.8954C55.04271,1301.8871,65.50267,1295.402,66.75792,1294.6698L69.1638,1293.2052L69.1638,1236.7211C69.1638,1197.6005,68.85008,1180.2369,68.01317,1180.2369C67.4901,1180.2369,60.27269,1184.3163,52.113937,1189.2325C43.955124,1194.2533,36.31932,1198.8558,35.168625,1199.4833C19.478561,1208.0607,-66.29372,1265.7999,-91.50246,1284.7325C-94.9543,1287.3478,-103.63606,1293.8329,-110.85353,1299.0629C-123.61476,1308.4769,-130.41377,1313.7069,-155.0995,1332.7443C-161.89857,1338.0787,-167.86073,1342.3676,-168.38374,1342.3676C-168.80214,1342.3676,-173.09077,1339.3341,-177.90236,1335.5685C-191.70961,1324.7946,-246.41566,1283.6866,-255.93428,1276.8876C-302.79523,1243.6246,-343.0664,1216.9515,-379.5719,1194.8807C-385.6388,1191.2198,-391.70563,1187.4542,-393.16998,1186.5128C-397.2494,1183.6886,-403.63,1180.2369,-404.67603,1180.2369C-405.30365,1180.2369,-405.72205,1200.9476,-405.72205,1236.7211 Z"/>
</g>
</g>
</svg>